<?xml version="1.0" encoding="utf-8"?>
<!-- Generator: Adobe Illustrator 19.1.0, SVG Export Plug-In . SVG Version: 6.00 Build 0)  -->
<!DOCTYPE svg PUBLIC "-//W3C//DTD SVG 1.1//EN" "http://www.w3.org/Graphics/SVG/1.1/DTD/svg11.dtd">
<svg version="1.1" id="Layer_1" xmlns="http://www.w3.org/2000/svg" xmlns:xlink="http://www.w3.org/1999/xlink" x="0px" y="0px"
	 viewBox="0 0 307.2 143" enable-background="new 0 0 307.2 143" xml:space="preserve">
<g>
	<g>
		<g>
			<path fill="#B9E3E2" d="M226.3,114.1l11.5-11.5c1.3-1.3,3.1-1.5,4.6-0.4c0,0,11.3,8.4,20.1,8.4c7.8,0,15.9-6.6,15.9-14.6
				s-8.2-14.8-21.7-14.8h-10.2c-1.8,0-3.5-1.6-3.5-3.5V62.7c0-2,1.6-3.5,3.5-3.5h10.2c12.8,0,19.5-6.2,19.5-14
				c0-7.8-6.8-13.7-14.6-13.7c-8,0-13.1,4.2-15.9,7.3c-1.3,1.5-3.5,1.5-4.9,0.2L229.6,28c-1.5-1.3-1.3-3.5,0-4.7
				c0,0,15-16.1,34.8-16.1c21.2,0,39.4,13,39.4,33.4c0,14-10.6,24.4-18.8,28.3v0.5c8.6,3.6,22.1,15,22.1,30.7
				c0,19.9-17.3,34.8-42.5,34.8c-23,0-34.7-11.3-38.5-16.2C225.1,117.4,225.3,115.4,226.3,114.1z"/>
		</g>
	</g>
	<g opacity="0.5">
		<path fill="#FFFFFF" d="M157.9,141.5c0-0.8,0.7-1.5,1.5-1.5l0,0c0.8,0,1.5,0.7,1.5,1.5l0,0c0,0.8-0.7,1.5-1.5,1.5l0,0
			C158.5,143,157.9,142.3,157.9,141.5z M157.9,134.5c0-0.8,0.7-1.5,1.5-1.5l0,0c0.8,0,1.5,0.7,1.5,1.5l0,0c0,0.8-0.7,1.5-1.5,1.5
			l0,0C158.5,136,157.9,135.3,157.9,134.5z M157.9,127.5c0-0.8,0.7-1.5,1.5-1.5l0,0c0.8,0,1.5,0.7,1.5,1.5l0,0
			c0,0.8-0.7,1.5-1.5,1.5l0,0C158.5,129,157.9,128.3,157.9,127.5z M157.9,120.5c0-0.8,0.7-1.5,1.5-1.5l0,0c0.8,0,1.5,0.7,1.5,1.5
			l0,0c0,0.8-0.7,1.5-1.5,1.5l0,0C158.5,122,157.9,121.3,157.9,120.5z M157.9,113.5c0-0.8,0.7-1.5,1.5-1.5l0,0
			c0.8,0,1.5,0.7,1.5,1.5l0,0c0,0.8-0.7,1.5-1.5,1.5l0,0C158.5,115,157.9,114.3,157.9,113.5z M157.9,106.5c0-0.8,0.7-1.5,1.5-1.5
			l0,0c0.8,0,1.5,0.7,1.5,1.5l0,0c0,0.8-0.7,1.5-1.5,1.5l0,0C158.5,108,157.9,107.3,157.9,106.5z M157.9,99.5c0-0.8,0.7-1.5,1.5-1.5
			l0,0c0.8,0,1.5,0.7,1.5,1.5l0,0c0,0.8-0.7,1.5-1.5,1.5l0,0C158.5,101,157.9,100.3,157.9,99.5z M157.9,92.5c0-0.8,0.7-1.5,1.5-1.5
			l0,0c0.8,0,1.5,0.7,1.5,1.5l0,0c0,0.8-0.7,1.5-1.5,1.5l0,0C158.5,94,157.9,93.3,157.9,92.5z M157.9,85.5c0-0.8,0.7-1.5,1.5-1.5
			l0,0c0.8,0,1.5,0.7,1.5,1.5l0,0c0,0.8-0.7,1.5-1.5,1.5l0,0C158.5,87,157.9,86.3,157.9,85.5z M157.9,78.5c0-0.8,0.7-1.5,1.5-1.5
			l0,0c0.8,0,1.5,0.7,1.5,1.5l0,0c0,0.8-0.7,1.5-1.5,1.5l0,0C158.5,80,157.9,79.3,157.9,78.5z M157.9,71.5c0-0.8,0.7-1.5,1.5-1.5
			l0,0c0.8,0,1.5,0.7,1.5,1.5l0,0c0,0.8-0.7,1.5-1.5,1.5l0,0C158.5,73,157.9,72.3,157.9,71.5z M157.9,64.5c0-0.8,0.7-1.5,1.5-1.5
			l0,0c0.8,0,1.5,0.7,1.5,1.5l0,0c0,0.8-0.7,1.5-1.5,1.5l0,0C158.5,66,157.9,65.3,157.9,64.5z M157.9,57.5c0-0.8,0.7-1.5,1.5-1.5
			l0,0c0.8,0,1.5,0.7,1.5,1.5l0,0c0,0.8-0.7,1.5-1.5,1.5l0,0C158.5,59,157.9,58.3,157.9,57.5z M157.9,50.5c0-0.8,0.7-1.5,1.5-1.5
			l0,0c0.8,0,1.5,0.7,1.5,1.5l0,0c0,0.8-0.7,1.5-1.5,1.5l0,0C158.5,52,157.9,51.3,157.9,50.5z M157.9,43.5c0-0.8,0.7-1.5,1.5-1.5
			l0,0c0.8,0,1.5,0.7,1.5,1.5l0,0c0,0.8-0.7,1.5-1.5,1.5l0,0C158.5,45,157.9,44.3,157.9,43.5z M157.9,36.5c0-0.8,0.7-1.5,1.5-1.5
			l0,0c0.8,0,1.5,0.7,1.5,1.5l0,0c0,0.8-0.7,1.5-1.5,1.5l0,0C158.5,38,157.9,37.3,157.9,36.5z M157.9,29.5c0-0.8,0.7-1.5,1.5-1.5
			l0,0c0.8,0,1.5,0.7,1.5,1.5l0,0c0,0.8-0.7,1.5-1.5,1.5l0,0C158.5,31,157.9,30.3,157.9,29.5z M157.9,22.5c0-0.8,0.7-1.5,1.5-1.5
			l0,0c0.8,0,1.5,0.7,1.5,1.5l0,0c0,0.8-0.7,1.5-1.5,1.5l0,0C158.5,24,157.9,23.3,157.9,22.5z M157.9,15.5c0-0.8,0.7-1.5,1.5-1.5
			l0,0c0.8,0,1.5,0.7,1.5,1.5l0,0c0,0.8-0.7,1.5-1.5,1.5l0,0C158.5,17,157.9,16.3,157.9,15.5z M157.9,8.5c0-0.8,0.7-1.5,1.5-1.5l0,0
			c0.8,0,1.5,0.7,1.5,1.5l0,0c0,0.8-0.7,1.5-1.5,1.5l0,0C158.5,10,157.9,9.3,157.9,8.5z M157.9,1.5c0-0.8,0.7-1.5,1.5-1.5l0,0
			c0.8,0,1.5,0.7,1.5,1.5l0,0c0,0.8-0.7,1.5-1.5,1.5l0,0C158.5,3,157.9,2.3,157.9,1.5z"/>
	</g>
	<path fill="#B9E3E2" d="M106.9,116.8H3.8v-9.1c0.3,0,0.6-0.1,1-0.2L27,95.1l22.9,13.6c0.3,0.2,0.6,0.3,1,0.3c0.4,0,0.8-0.1,1.2-0.4
		l29.4-21.8l-1.4,6.7c-0.2,1,0.4,2,1.5,2.3c0.1,0,0.3,0,0.4,0c0.9,0,1.7-0.6,1.9-1.5l2.4-11.3c0.1-0.7-0.1-1.4-0.7-1.9
		c-0.3-0.6-0.9-1-1.7-1l-11.6,0h0c-1.1,0-1.9,0.9-1.9,1.9c0,1.1,0.9,1.9,1.9,1.9l6.7,0l-28.2,20.9L28,91.2c-0.6-0.3-1.3-0.4-1.9,0
		L3.8,103.6V92.2h7.2c1.1,0,1.9-0.9,1.9-1.9c0-1.1-0.9-1.9-1.9-1.9H3.8v-7.2C4,81.1,4.1,81.1,4.3,81l22.6-15.3l14.4,12.6
		c0.6,0.5,1.5,0.6,2.2,0.2l56.7-38.7l-1.5,5.8c-0.3,1,0.4,2.1,1.4,2.3c0.2,0,0.3,0.1,0.5,0.1c0.9,0,1.6-0.6,1.8-1.4l2.7-10.5
		c0-0.1,0.1-0.2,0.1-0.3l0.1-0.4c0.2-0.7-0.1-1.4-0.6-1.9c-0.3-0.6-0.9-1.1-1.6-1.1l-11.6-0.5c-1.1,0-1.9,0.8-2,1.8
		c0,1.1,0.8,1.9,1.8,2l7.7,0.3L42.8,74.5L28.3,61.8c-0.7-0.6-1.6-0.6-2.3-0.1l-22.2,15V61.3h7.2c1.1,0,1.9-0.9,1.9-1.9
		s-0.9-1.9-1.9-1.9H3.8V44.7h7.2c1.1,0,1.9-0.9,1.9-1.9s-0.9-1.9-1.9-1.9H3.8V30.6c0-1.1-0.9-1.9-1.9-1.9S0,29.6,0,30.6v88.1
		c0,1.1,0.9,1.9,1.9,1.9h105c1.1,0,1.9-0.9,1.9-1.9S107.9,116.8,106.9,116.8z"/>
</g>
</svg>
