<?xml version="1.0" encoding="utf-8"?>
<!-- Generator: Adobe Illustrator 19.1.0, SVG Export Plug-In . SVG Version: 6.00 Build 0)  -->
<svg version="1.1" id="Layer_1" xmlns="http://www.w3.org/2000/svg" xmlns:xlink="http://www.w3.org/1999/xlink" x="0px" y="0px"
	 viewBox="-232 345.9 130 150" style="enable-background:new -232 345.9 130 150;" xml:space="preserve">
<style type="text/css">
	.st0{opacity:0.8;}
	.st1{fill:#B7EAE6;}
	.st2{fill:#21BCBF;}
	.st3{display:none;}
	.st4{display:inline;}
	.st5{opacity:0.2;}
</style>
<g id="Layer_1_1_">
	<g>
		<g class="st0">
			<g>
				<path class="st1" d="M-173.8,409.2h-15.6c-1.6,0-2.9-1.5-2.9-3.1v-10.2c0-0.7,0.5-2,1-2.4l23.7-18.6h15c1.6,0,2.9,1.5,2.9,3.1
					v104.4c0,1.6-1.3,3.1-2.9,3.1h-18.1c-1.8,0-3.1-1.5-3.1-3.1V409.2z"/>
			</g>
		</g>
		<g>
			<g>
				<path class="st2" d="M-170.1,430.6c-8.4,0-17.2-2.3-17.2-6.7c0-4.3,8.9-6.7,17.2-6.7c8.4,0,17.2,2.3,17.2,6.7
					C-152.8,428.2-161.7,430.6-170.1,430.6L-170.1,430.6z M-170.1,419.2c-9.4,0-15.2,2.7-15.2,4.6s5.8,4.6,15.2,4.6
					c9.4,0,15.2-2.7,15.2-4.6S-160.7,419.2-170.1,419.2L-170.1,419.2z"/>
			</g>
			<g>
				<path class="st2" d="M-170.1,430.6c-8.4,0-17.2-2.3-17.2-6.7c0-0.6,0.5-1,1-1c0.6,0,1,0.5,1,1c0,1.9,5.8,4.6,15.2,4.6
					c9.4,0,15.2-2.7,15.2-4.6c0-0.6,0.5-1,1-1c0.6,0,1,0.5,1,1C-152.8,428.2-161.7,430.6-170.1,430.6L-170.1,430.6z"/>
			</g>
			<g>
				<path class="st2" d="M-170.1,436.9c-8.4,0-17.2-2.3-17.2-6.7c0-0.6,0.5-1,1-1c0.6,0,1,0.5,1,1c0,1.9,5.8,4.6,15.2,4.6
					c0.9,0,1.9,0,2.8-0.1c0.6-0.1,1.1,0.4,1.1,1s-0.4,1.1-1,1.1C-168.1,436.9-169.1,436.9-170.1,436.9L-170.1,436.9z"/>
			</g>
			<g>
				<path class="st2" d="M-186,431.3c-0.6,0-1-0.5-1-1V424c0-0.6,0.4-1,1-1s1,0.5,1,1v6.3C-185,430.8-185.4,431.3-186,431.3
					L-186,431.3z"/>
			</g>
			<g>
				<path class="st2" d="M-154,430.6c-0.6,0-1-0.5-1-1v-5.7c0-0.6,0.4-1,1-1s1,0.5,1,1v5.7C-153,430.2-153.4,430.6-154,430.6
					L-154,430.6z"/>
			</g>
			<g>
				<path class="st2" d="M-171.3,448.9L-171.3,448.9c-7.6,0-13.7-1.9-15.5-4.7c-0.3-0.5-0.2-1,0.3-1.3c0.5-0.3,1.1-0.1,1.4,0.3
					c1.2,1.8,6.3,3.8,13.8,3.9c0.6,0,1,0.3,1,0.9C-170.3,448.6-170.7,448.9-171.3,448.9L-171.3,448.9z"/>
			</g>
			<g>
				<path class="st2" d="M-169.3,455.6c-8.9,0-18-2.5-18-6.7c0-0.6,0.5-1,1-1c0.6,0,1,0.5,1,1c0,1.8,6.4,4.6,16,4.6c0.6,0,1,0.5,1,1
					C-168.3,455.2-168.7,455.6-169.3,455.6L-169.3,455.6z"/>
			</g>
			<g>
				<path class="st2" d="M-174.8,439.2c-8.4,0-17.2-2.3-17.2-6.7c0-1.4,0.9-3.4,5.4-4.9c0.5-0.2,1.1,0.1,1.3,0.6s-0.1,1.1-0.6,1.3
					c-2.5,0.9-4,2-4,3c0,1.9,5.8,4.6,15.2,4.6c1.9,0,3.7-0.1,5.4-0.3c0.6-0.1,1.1,0.3,1.1,0.9c0.1,0.6-0.3,1.1-0.9,1.1
					C-171,439.1-172.9,439.2-174.8,439.2L-174.8,439.2z"/>
			</g>
			<g>
				<path class="st2" d="M-174.8,445.6c-8.4,0-17.2-2.3-17.2-6.7c0-0.6,0.5-1,1-1c0.6,0,1,0.5,1,1c0,1.9,5.8,4.6,15.2,4.6
					c1.2,0,2.5-0.1,3.7-0.1c0.5,0,1.1,0.4,1.1,0.9c0,0.6-0.4,1.1-0.9,1.1C-172.2,445.6-173.5,445.6-174.8,445.6L-174.8,445.6z"/>
			</g>
			<g>
				<path class="st2" d="M-191,440c-0.6,0-1-0.5-1-1v-6.3c0-0.6,0.4-1,1-1s1,0.5,1,1v6.2C-190,439.5-190.4,440-191,440L-191,440z"/>
			</g>
			<g>
				<path class="st2" d="M-186,450.5c-0.6,0-1-0.5-1-1V444c0-0.6,0.4-1,1-1s1,0.5,1,1v5.5C-185,450.1-185.4,450.5-186,450.5
					L-186,450.5z"/>
			</g>
			<g>
				<path class="st2" d="M-154.8,463.5c-9.5,0-17.2-7.7-17.2-17.2s7.7-17.2,17.2-17.2s17.2,7.7,17.2,17.2
					C-137.6,455.7-145.3,463.5-154.8,463.5L-154.8,463.5z M-154.8,431.1c-8.4,0-15.2,6.8-15.2,15.1c0,8.4,6.8,15.2,15.2,15.2
					c8.4,0,15.2-6.8,15.2-15.2C-139.6,437.9-146.4,431.1-154.8,431.1L-154.8,431.1z"/>
			</g>
			<g>
				<path class="st2" d="M-155.7,453.6c-0.8-0.1-1.6-0.2-2.3-0.6c-0.7-0.3-1.3-0.7-1.8-1.3l0.6-0.8c0.1-0.1,0.1-0.1,0.2-0.2
					c0.1-0.1,0.2-0.1,0.3-0.1s0.3,0.1,0.5,0.2c0.2,0.1,0.4,0.3,0.6,0.5c0.2,0.2,0.5,0.3,0.9,0.5c0.3,0.2,0.7,0.3,1.2,0.3l0.4-5.6
					c-0.5-0.1-1-0.3-1.4-0.5c-0.5-0.2-0.9-0.4-1.3-0.7c-0.4-0.3-0.7-0.7-0.9-1.1c-0.2-0.5-0.3-1-0.3-1.7c0-0.5,0.1-1,0.3-1.5
					c0.2-0.5,0.5-0.9,0.9-1.3c0.4-0.4,0.9-0.7,1.4-0.9c0.6-0.2,1.2-0.4,1.9-0.4l0.1-1.5c0-0.1,0.1-0.5,0.2-0.6s0.2-0.4,0.4-0.4h0.7
					l-0.1,2.3c0.7,0.1,1.4,0.4,1.9,0.7c0.5,0.3,1,0.7,1.4,1.1l-0.5,0.7c-0.1,0.2-0.3,0.3-0.5,0.3c-0.1,0-0.2,0-0.4-0.1
					c-0.1-0.1-0.3-0.2-0.5-0.3c-0.2-0.1-0.4-0.2-0.7-0.3c-0.3-0.1-0.6-0.2-0.9-0.2l-0.3,5.1c0.5,0.2,1,0.3,1.5,0.5
					c0.5,0.2,0.9,0.4,1.3,0.7c0.4,0.3,0.7,0.6,0.9,1.1c0.2,0.4,0.4,1,0.4,1.6s-0.1,1.2-0.3,1.8s-0.5,1-0.9,1.5
					c-0.4,0.4-0.9,0.8-1.5,1c-0.6,0.3-1.3,0.4-2,0.4l-0.1,1.9c0,0.1-0.1,0.1-0.2,0.2c-0.1,0.1-0.2,0-0.4,0h-0.7L-155.7,453.6z
					 M-157.4,442.3c0,0.3,0.1,0.6,0.2,0.9c0.1,0.2,0.3,0.5,0.5,0.7c0.2,0.2,0.5,0.4,0.7,0.5c0.3,0.1,0.6,0.3,0.9,0.4l0.3-4.7
					c-0.5,0-0.9,0.1-1.2,0.3c-0.3,0.1-0.6,0.3-0.8,0.5c-0.2,0.2-0.4,0.4-0.5,0.7C-157.4,441.8-157.4,442-157.4,442.3z M-151.6,449.3
					c0-0.3-0.1-0.7-0.2-0.9c-0.1-0.3-0.3-0.5-0.5-0.7c-0.2-0.2-0.5-0.3-0.8-0.5c-0.3-0.1-0.6-0.3-1-0.4l-0.4,5.2
					c0.5,0,0.9-0.1,1.2-0.3c0.4-0.2,0.7-0.4,0.9-0.6c0.2-0.2,0.4-0.5,0.5-0.9C-151.6,450.1-151.6,449.7-151.6,449.3z"/>
			</g>
		</g>
	</g>
</g>
<g id="Layer_2" class="st3">
	<g class="st4">
		<g class="st5">
			<g>
				<path class="st1" d="M-204.1,479.2c9.4-12.4,33.5-45.1,43.1-59.7c2.1-3.3,4.2-7.8,4.2-12.4c0-6.2-5.2-11.7-14.3-11.7
					c-6.7,0-12.7,4.7-15.8,8.1c-1.3,1.3-3.3,1.3-4.6,0l-9.9-10.1c-1.1-1-1.3-2.9-0.2-4.2c0,0,13.2-15.9,32.5-15.9
					c23.3,0,36.9,14.8,36.9,32.9c0,8.6-2.4,13.5-6.3,21.1c-5.2,9.3-18.5,26.7-26.2,37.4h28.6c1.6,0,3.1,1.5,3.1,3.1v14.6
					c0,1.6-1.5,3.1-3.1,3.1H-201c-1.8,0-3.1-1.5-3.1-3.1V479.2z"/>
			</g>
		</g>
		<g>
			<path class="st2" d="M-143.8,421.8c0-0.1,0-0.2-0.1-0.3l-5.2-6.8c-0.8-1-2.3-1.9-3.6-1.9h-27c-1.3,0-2.8,0.8-3.6,1.9l-5.2,6.7
				c-0.1,0.1-0.3,0.2-0.4,0.4c-0.6,0.5-1.1,1.2-1.1,2v35.1c0,1.5,1.6,2.9,3.1,2.9h41.4c1.5,0,2.5-1.4,2.5-2.9v-35
				C-143,423.1-143.3,422.3-143.8,421.8z M-152.7,414.9c0.7,0,1.8,0.4,2.2,0.9l4.1,5.1H-162v-6H-152.7z M-163,414.9v16.2
				c0,0.5-0.9,0.8-1.4,0.8h-3.6c-0.5,0-1-0.3-1-0.8v-16.2H-163z M-181.9,415.8c0.4-0.6,1.5-0.9,2.2-0.9h8.7v6h-15L-181.9,415.8z
				 M-145,459c0,0.5,0,0.9-0.5,0.9h-41.4c-0.5,0-1.1-0.4-1.1-0.9v-35.1c0-0.5,0.6-1,1.1-1h15.9v8.2c0,1.5,1.5,2.8,3,2.8h3.6
				c1.5,0,2.4-1.3,2.4-2.8v-8.2h16.5c0.5,0,0.5,0.5,0.5,1V459z"/>
			<path class="st2" d="M-150,454.9h-17.1c-0.5,0-0.9,0-0.9,0.5s0.4,0.5,0.9,0.5h17.1c0.5,0,0.9,0,0.9-0.5S-149.5,454.9-150,454.9z"
				/>
			<path class="st2" d="M-153,440.3c-0.4-0.4-0.9-0.4-1.3,0l-3.6,3.6c-0.4,0.4-0.4,0.9,0,1.3c0.4,0.4,1.2,0.4,1.5,0l2.3-2.1v7.7
				c0,0.5,0,0.9,0.5,0.9s0.5-0.4,0.5-0.9v-7.7l2.2,2.1c0.2,0.2,0.5,0.3,0.7,0.3c0.2,0,0.5-0.1,0.7-0.3c0.4-0.4,0.4-0.9,0-1.3
				L-153,440.3z"/>
			<path class="st2" d="M-166.3,445.2l2.3-2.1v7.7c0,0.5,0,0.9,0.5,0.9s0.5-0.4,0.5-0.9v-7.7l2.3,2.1c0.2,0.2,0.5,0.3,0.7,0.3
				s0.5-0.1,0.7-0.3c0.4-0.4,0.4-0.9,0-1.3l-3.6-3.6c-0.4-0.4-0.9-0.4-1.3,0l-3.6,3.6c-0.4,0.4-0.2,0.9,0.1,1.3
				C-167.3,445.6-166.6,445.6-166.3,445.2z"/>
		</g>
	</g>
</g>
<g id="Layer_3" class="st3">
	<g class="st4">
		<g class="st5">
			<g>
				<path class="st1" d="M-203,468.6l10.2-10.2c1.1-1.1,2.8-1.3,4.1-0.3c0,0,10.1,7.5,17.9,7.5c7,0,14.2-5.9,14.2-13
					s-7.4-13.3-19.4-13.3h-9.1c-1.6,0-3.1-1.5-3.1-3.1v-13.5c0-1.8,1.5-3.1,3.1-3.1h9.1c11.4,0,17.4-5.5,17.4-12.5s-6-12.2-13-12.2
					c-7.2,0-11.7,3.7-14.2,6.5c-1.1,1.3-3.1,1.3-4.4,0.2l-9.9-9.8c-1.3-1.1-1.1-3.1,0-4.2c0,0,13.3-14.3,31.1-14.3
					c18.9,0,35.1,11.5,35.1,29.8c0,12.5-9.4,21.8-16.8,25.2v0.5c7.6,3.3,19.7,13.3,19.7,27.3c0,17.7-15.5,31.1-37.9,31.1
					c-20.5,0-30.9-10.1-34.3-14.5C-204.1,471.5-204,469.7-203,468.6z"/>
			</g>
		</g>
		<g>
			<path class="st2" d="M-143,417.4c0-2.5-2-4.5-4.5-4.5h-40c-2.5,0-4.5,2-4.5,4.5v40c0,2.5,2,4.5,4.5,4.5h40c2.5,0,4.5-2,4.5-4.5
				V417.4z M-187,414.9h39.6c1.5,0,2.4,1.2,2.4,2.7v6.3h-45v-6.3C-190,416.1-188.5,414.9-187,414.9z M-147.4,459.9H-187
				c-1.5,0-3-1.2-3-2.7v-31.3h45v31.3C-145,458.7-145.9,459.9-147.4,459.9z"/>
			<path class="st2" d="M-186.1,419.9h9c0.5,0,0.9,0,0.9-0.5s-0.4-0.5-0.9-0.5h-9c-0.5,0-0.9,0-0.9,0.5S-186.6,419.9-186.1,419.9z"
				/>
			<path class="st2" d="M-151,419.9h2.7c0.5,0,0.9,0,0.9-0.5s-0.4-0.5-0.9-0.5h-2.7c-0.5,0-0.9,0-0.9,0.5S-151.5,419.9-151,419.9z"
				/>
			<path class="st2" d="M-149.2,441.9h-3l-3.4-7.5c-0.1-0.3-0.5-0.5-0.8-0.5l0,0c-0.4,0-0.7,0.2-0.8,0.5l-4.6,10.8l-0.9-1.9
				c-0.2-0.3-0.5-0.5-0.8-0.5c-0.4,0-0.7,0.2-0.8,0.6l-2.5,6.4l-3.8-16.1c-0.1-0.4-0.4-0.7-0.8-0.7c-0.4,0-0.8,0.2-0.9,0.6l-4,12.8
				l-2.5-3.2c-0.2-0.2-0.4-0.3-0.7-0.3s-0.5,0.2-0.7,0.4l-1.8,1.6h-3.2c-0.5,0-0.9,0-0.9,0.5s0.4,0.5,0.9,0.5h3.6
				c0.2,0,0.5,0.1,0.6,0l1.1-1l3,3.8c0.2,0.3,0.5,0.4,0.9,0.4c0.3-0.1,0.6-0.3,0.7-0.6l3.5-11.3l3.7,15.7c0.1,0.4,0.4,0.7,0.8,0.7
				c0,0,0,0,0.1,0c0.4,0,0.7-0.2,0.8-0.6l2.9-7.1l0.9,1.8c0.2,0.3,0.5,0.5,0.8,0.5c0.4,0,0.7-0.2,0.8-0.5l4.6-10.8l2.8,6.3
				c0.1,0.3,0.5,0.6,0.8,0.6h3.6c0.5,0,0.9-0.5,0.9-1S-148.7,441.9-149.2,441.9z"/>
		</g>
	</g>
</g>
<g id="Layer_4" class="st3">
	<g class="st4">
		<g class="st5">
			<g>
				<path class="st1" d="M-212.5,459.5v-17.2l56.8-68.2c0.5-0.5,1-1,2.4-1h11.7c1.6,0,3.1,1.3,3.1,3.1l0.2,66.7h12.9
					c1.8,0,3.1,1.3,3.1,2.9v13.5c0,1.6-1.3,3.1-3.1,3.1h-12.9l0.2,20c0,1.6-1.5,3.1-3.1,3.1h-17.5c-1.6,0-3.1-1.5-3.1-3.1v-19.8
					h-47.6C-211.2,462.6-212.5,461.1-212.5,459.5z M-161.1,442.4v-30.2l-25.9,30.2H-161.1z"/>
			</g>
		</g>
		<path class="st2" d="M-139,419.1c0-2.5-2.2-4.2-4.7-4.2h-9.3l-1.5-2.8l-0.2-0.6c-0.8-1.5-1.9-3.6-4.3-3.6h-9c-2.5,0-3.6,2.4-4.4,4
			l-1.5,3h-9.4c-2.5,0-4.7,1.7-4.7,4.2v11.7c0,1,0,2,1,2.9v18.7c0,2.5,2.2,4.5,4.6,4.5h37.8c2.5,0,4.6-2,4.6-4.5v-18.7
			c0-0.9,1-1.9,1-2.9C-139,430.8-139,419.1-139,419.1z M-170.7,412.8c0.8-1.6,1.5-2.9,2.8-2.9h9c1.3,0,1.8,1.1,2.7,2.7l1.2,2.3
			h-16.8L-170.7,412.8z M-186,419.1c0-1.5,1.3-2.2,2.7-2.2h39.6c1.5,0,2.7,0.7,2.7,2.2v11.7c0,1.6-1.2,3.2-2.8,3.6L-158,438v-1.8
			c0-1.5-1.3-2.3-2.8-2.3h-5.4c-1.5,0-2.8,0.9-2.8,2.3v1.8l-14.2-3.6c-1.5-0.4-2.8-2-2.8-3.6C-186,430.8-186,419.1-186,419.1z
			 M-160,436.2v4.5c0,0.6-0.5,1.4-1,1.5c-1.6,0.4-3.3,0.4-5,0c-0.5-0.1-1-0.9-1-1.5v-4.5c0-0.5,0.4-1.3,0.8-1.3h5.4
			C-160.3,434.9-160,435.7-160,436.2z M-144.6,454.9h-37.8c-1.5,0-2.6-1-2.6-2.5v-16.9c0,0.3,0.9,0.5,1.4,0.6l14.4,3.6
			c0.1,0,0.1,0,0.1,0v0.9c0,1.5,1.2,2.9,2.5,3.3c1,0.2,2,0.4,3,0.4s2-0.1,3-0.4c1.3-0.3,2.5-1.8,2.5-3.3v-0.9c0,0,0.1,0,0.2,0
			l14.4-3.6c0.5-0.1,0.4-0.4,1.4-0.6v16.9C-142,453.9-143.1,454.9-144.6,454.9z"/>
	</g>
</g>
</svg>
